HIERARCHY
ROOT Hips
{
	OFFSET 0.00000 0.00000 0.00000
	CHANNELS 6 Xposition Yposition Zposition Zrotation Yrotation Xrotation 
	JOINT LHipJoint
	{
		OFFSET 0 0 0
		CHANNELS 3 Zrotation Yrotation Xrotation
		JOINT LeftHip
		{
			OFFSET 1.55766 -1.60504 1.11378
			CHANNELS 3 Zrotation Yrotation Xrotation
			JOINT LeftKnee
			{
				OFFSET 2.29047 -6.29302 0.00000
				CHANNELS 3 Zrotation Yrotation Xrotation
				JOINT LeftAnkle
				{
					OFFSET 2.52265 -6.93093 0.00000
					CHANNELS 3 Zrotation Yrotation Xrotation
					JOINT LeftToe
					{
						OFFSET 0.17633 -0.48446 2.02656
						CHANNELS 3 Zrotation Yrotation Xrotation
						End Site
						{
							OFFSET 0.00000 -0.00000 1.04989
						}
					}
				}
			}
		}
	}
	JOINT RHipJoint
	{
		OFFSET 0 0 0
		CHANNELS 3 Zrotation Yrotation Xrotation
		JOINT RightHip
		{
			OFFSET -1.48599 -1.60504 1.11378
			CHANNELS 3 Zrotation Yrotation Xrotation
			JOINT RightKnee
			{
				OFFSET -2.27280 -6.24448 0.00000
				CHANNELS 3 Zrotation Yrotation Xrotation
				JOINT RightAnkle
				{
					OFFSET -2.50834 -6.89161 0.00000
					CHANNELS 3 Zrotation Yrotation Xrotation
					JOINT RightToe
					{
						OFFSET -0.26967 -0.74090 2.08741
						CHANNELS 3 Zrotation Yrotation Xrotation
						End Site
						{
							OFFSET -0.00000 -0.00000 1.10614
						}
					}
				}
			}
		}
	}
	JOINT lowerback
	{
		OFFSET 0 0 0
		CHANNELS 3 Zrotation Yrotation Xrotation
		JOINT Chest
		{
			OFFSET 0.06481 2.02437 -0.08472
			CHANNELS 3 Zrotation Yrotation Xrotation
			JOINT Chest2
			{
				OFFSET 0.00015 1.96711 0.18069
				CHANNELS 3 Zrotation Yrotation Xrotation
				JOINT lowerneck
				{
					OFFSET 0 0 0
					CHANNELS 3 Zrotation Yrotation Xrotation
					JOINT Neck
					{
						OFFSET -0.29961 1.68293 -0.13041
						CHANNELS 3 Zrotation Yrotation Xrotation
						JOINT Head
						{
							OFFSET 0.59697 1.61501 -0.14669
							CHANNELS 3 Zrotation Yrotation Xrotation
							End Site
							{
								OFFSET 0.22973 1.74906 -0.10148
							}
						}
					}
				}
				JOINT LeftCollar
				{
					OFFSET 0 0 0
					CHANNELS 3 Zrotation Yrotation Xrotation
					JOINT LeftShoulder
					{
						OFFSET 3.37968 1.02893 0.31147
CHANNELS 3 Zrotation Xrotation Yrotation
						JOINT LeftElbow
						{
OFFSET 0 -5.198070 -0.000000
CHANNELS 3 Zrotation Xrotation Yrotation
							JOINT LeftWrist
							{
OFFSET 0 -3.093700 -0.000000
CHANNELS 3 Zrotation Xrotation Yrotation
								JOINT lhand
								{
									OFFSET 0 0 0
CHANNELS 3 Zrotation Xrotation Yrotation
									JOINT LFingers
									{
OFFSET 0 -0.672630 -0.000000
CHANNELS 3 Zrotation Xrotation Yrotation
										End Site
										{
OFFSET 0 -0.542290 -0.000000
										}
									}
								}
								JOINT LThumb
								{
OFFSET 0 0.000000 0.000000
CHANNELS 3 Zrotation Xrotation Yrotation
									End Site
									{
OFFSET 0 -0.550570 0.550570
									}
								}
							}
						}
					}
				}
				JOINT RightCollar
				{
					OFFSET 0 0 0
					CHANNELS 3 Zrotation Yrotation Xrotation
					JOINT RightShoulder
					{
						OFFSET -3.38254 0.96355 -0.16120
CHANNELS 3 Zrotation Xrotation Yrotation
						JOINT RightElbow
						{
OFFSET 0 -5.452220 -0.000000
CHANNELS 3 Zrotation Xrotation Yrotation
							JOINT RightWrist
							{
OFFSET 0 -3.012840 -0.000000
CHANNELS 3 Zrotation Xrotation Yrotation
								JOINT rhand
								{
									OFFSET 0 0 0
CHANNELS 3 Zrotation Xrotation Yrotation
									JOINT RFingers
									{
OFFSET 0 -0.622300 -0.000000
CHANNELS 3 Zrotation Xrotation Yrotation
										End Site
										{
OFFSET 0 -0.501710 -0.000000
										}
									}
								}
								JOINT RThumb
								{
OFFSET 0 0.000000 0.000000
CHANNELS 3 Zrotation Xrotation Yrotation
									End Site
									{
OFFSET 0 -0.509370 0.509370
									}
								}
							}
						}
					}
				}
			}
		}
	}
}
MOTION
Frames: 6
Frame Time: 0.008333333333333333
1.445500 15.994100 27.791300 -124.566000 -80.023400 136.998000 0.000000 0.000000 0.000000 -13.159100 -1.440400 -28.028800 3.289600 11.149700 32.786400 1.049300 -7.437600 -18.303000 0.869000 -5.943600 -16.620900 0.000000 0.000000 0.000000 30.535700 -3.600400 -22.914000 -1.608200 -7.997300 22.705900 0.179500 19.896700 -12.456400 -0.345300 3.775800 -10.446600 7.853600 4.176900 -13.415300 -0.918200 4.284500 -6.269700 -4.743400 1.865400 1.511100 -29.779500 -7.965200 20.913900 43.890900 -18.506700 -7.842500 23.656300 -12.489900 2.230200 0.000000 0.000000 0.000000 5.866800 12.234200 -43.115300 17.824800 -27.932200 4.466900 16.695500 -39.860800 12.581500 0.000000 0.000000 0.000000 -7.125000 0.000000 0.000000 -7.320600 16.930400 -4.912000 0.000000 0.000000 0.000000 1.547300 5.826900 39.953200 -13.431100 -21.915600 -2.612000 -7.767200 23.063500 -1.644600 0.000000 0.000000 0.000000 7.125000 0.000000 -0.000000 14.462400 28.198600 6.091800
1.448055 15.994208 27.794402 -123.825401 -80.162968 136.305970 0.000000 0.000000 0.000000 -13.203914 -1.483314 -28.113968 3.287110 11.145873 32.773388 1.042151 -7.624259 -18.249404 0.860971 -5.916843 -16.543298 0.000000 0.000000 0.000000 30.486179 -3.561626 -22.997587 -1.618071 -8.020665 22.776986 0.150223 19.704144 -12.565155 -0.350727 3.805274 -10.529403 7.784484 4.145178 -13.393774 -0.924400 4.254823 -6.257120 -4.716922 1.852727 1.505114 -29.801322 -7.961229 20.917951 43.864592 -18.489763 -7.849555 23.645706 -12.475455 2.218300 0.000000 0.000000 0.000000 5.845600 12.189286 -43.105930 17.812651 -27.916612 4.461137 16.778725 -39.817713 12.578033 0.000000 0.000000 0.000000 -7.125000 0.000000 0.000000 -7.262913 16.927534 -4.873143 0.000000 0.000000 0.000000 1.648036 5.753209 39.394665 -13.347435 -21.794123 -2.580890 -7.773468 23.542138 -1.795050 0.000000 0.000000 0.000000 7.125000 0.000000 0.000000 14.437882 28.051720 6.132798
1.450226 15.993806 27.797647 -122.686973 -80.246095 135.231426 0.000000 0.000000 0.000000 -13.159216 -1.491116 -28.257392 3.294853 11.157746 32.813892 1.037180 -7.850385 -18.219368 0.867310 -5.938192 -16.605298 0.000000 0.000000 0.000000 30.535498 -3.576005 -23.074485 -1.618790 -8.022333 22.781900 0.139647 19.599671 -12.578114 -0.340470 3.749311 -10.372478 7.824933 4.142039 -13.364987 -0.941726 4.250386 -6.254367 -4.760009 1.850157 1.495576 -29.819433 -7.963916 20.955223 43.870684 -18.503807 -7.849922 23.658380 -12.485957 2.221351 0.000000 0.000000 0.000000 5.875966 12.146964 -43.141427 17.804923 -27.906629 4.457527 16.842787 -39.780833 12.516152 0.000000 0.000000 0.000000 -7.125000 0.000000 0.000000 -7.218190 16.986401 -4.833296 0.000000 0.000000 0.000000 1.676895 5.723108 39.249369 -13.333829 -21.774394 -2.575814 -7.750266 23.613566 -1.879527 0.000000 0.000000 0.000000 7.125000 0.000000 0.000000 14.444330 27.968942 6.164973
1.452935 15.991959 27.798176 -121.398603 -80.273465 134.021429 0.000000 0.000000 0.000000 -13.048948 -1.421398 -28.479779 3.314601 11.187637 32.915434 1.032106 -8.190047 -18.200070 0.855817 -5.899550 -16.493303 0.000000 0.000000 0.000000 30.634962 -3.427483 -23.069032 -1.612876 -8.008399 22.739450 0.106121 19.300205 -12.647941 -0.346583 3.782487 -10.465509 7.881584 4.149018 -13.312980 -0.939352 4.258641 -6.268742 -4.791089 1.851912 1.456692 -29.807653 -7.978330 20.990783 43.863806 -18.530377 -7.829316 23.646629 -12.501124 2.229336 0.000000 0.000000 0.000000 5.917795 12.121411 -43.183283 17.799606 -27.899782 4.455053 16.866467 -39.764006 12.487318 0.000000 0.000000 0.000000 -7.125000 0.000000 0.000000 -7.201487 17.014282 -4.817534 0.000000 0.000000 0.000000 1.589427 5.758489 39.669106 -13.403808 -21.875973 -2.601836 -7.745895 23.201778 -1.812720 0.000000 0.000000 0.000000 7.125000 0.000000 0.000000 14.456335 28.034115 6.147311
1.456051 15.990112 27.797706 -119.976312 -80.288717 132.684159 0.000000 0.000000 0.000000 -12.905193 -1.385018 -28.729095 3.342131 11.229274 33.057124 1.024515 -8.566618 -18.167481 0.824180 -5.792386 -16.183216 0.000000 0.000000 0.000000 30.730097 -3.056536 -22.954832 -1.602178 -7.982942 22.662396 0.034116 18.677171 -12.831958 -0.379970 3.958615 -10.960268 7.925688 4.137438 -13.241079 -0.911279 4.245081 -6.286910 -4.792895 1.842199 1.397456 -29.842526 -7.973576 21.003547 43.859361 -18.547718 -7.769078 23.652607 -12.509565 2.254982 0.000000 0.000000 0.000000 5.915963 12.110974 -43.140334 17.797484 -27.897064 4.454092 16.947191 -39.735348 12.506482 0.000000 0.000000 0.000000 -7.125000 0.000000 0.000000 -7.145718 16.988159 -4.783758 0.000000 0.000000 0.000000 1.561146 5.761965 39.795630 -13.414251 -21.891177 -2.605697 -7.777227 23.159484 -1.720713 0.000000 0.000000 0.000000 7.125000 0.000000 0.000000 14.444746 28.124387 6.110193
1.458035 15.987825 27.796161 -118.618149 -80.335204 131.408487 0.000000 0.000000 0.000000 -12.808568 -1.328503 -28.968213 3.365493 11.264370 33.176780 1.017833 -8.929077 -18.148555 0.820591 -5.779900 -16.147112 0.000000 0.000000 0.000000 30.781505 -2.664776 -22.863878 -1.601206 -7.980726 22.655496 -0.038496 18.036914 -13.035416 -0.404739 4.084254 -11.313897 7.889925 4.104574 -13.174091 -0.872120 4.212628 -6.292455 -4.740477 1.825564 1.346227 -29.885856 -7.973445 21.012838 43.835537 -18.565648 -7.714844 23.643084 -12.514304 2.277609 0.000000 0.000000 0.000000 5.850721 12.092235 -42.981998 17.787427 -27.884095 4.449372 16.996904 -39.661304 12.518504 0.000000 0.000000 0.000000 -7.125000 0.000000 0.000000 -7.111287 16.971804 -4.762925 0.000000 0.000000 0.000000 1.558602 5.744314 39.709624 -13.392487 -21.859572 -2.597628 -7.809889 23.408032 -1.665856 0.000000 0.000000 0.000000 7.125000 0.000000 0.000000 14.427293 28.178348 6.083225
